<svg width="463" height="112" viewBox="0 0 463 112" fill="none" xmlns="http://www.w3.org/2000/svg">
<g filter="url(#filter0_d_1716_15365)">
<path d="M43.5565 0C54.768 25.2627 48.7571 49.8998 39.0351 59.3123C29.3132 68.7248 5.00001 74.6896 5.00001 74.6896L32.2279 101.051C32.2279 101.051 51.4724 85.1775 59.8724 68.5701C68.2723 51.9626 63.7007 19.2477 43.5565 0Z" fill="url(#paint0_linear_1716_15365)"/>
<path d="M43.5564 0C51.7033 32.2118 44.9711 40.5203 39.0351 46.1318C33.0991 51.7432 5 61.509 5 61.509L32.2279 87.8701C33.0741 87.8701 56.7781 66.2577 59.8723 54.1343C62.9664 42.0108 63.4893 21.3769 43.5564 0Z" fill="url(#paint1_linear_1716_15365)"/>
<path d="M32.2281 87.8701L5.00029 61.5091V74.6896L32.2281 101.051V87.8701Z" fill="url(#paint2_linear_1716_15365)"/>
<path d="M48.4511 0C37.2418 25.2627 43.2515 49.8998 52.9716 59.3123C62.6916 68.7248 87 74.6896 87 74.6896L59.7775 101.051C59.7775 101.051 40.5367 85.1775 32.1384 68.5701C23.7401 51.9626 28.3109 19.2477 48.4511 0Z" fill="url(#paint3_linear_1716_15365)"/>
<path d="M48.4511 0C40.3058 32.2118 47.0367 40.5203 52.9715 46.1318C58.9063 51.7432 87 61.509 87 61.509L59.7774 87.8701C58.9313 87.8701 35.232 66.2577 32.1385 54.1343C29.0449 42.0108 28.5221 21.3769 48.4511 0Z" fill="url(#paint4_linear_1716_15365)"/>
<path d="M59.7773 87.8701L86.9998 61.5091V74.6896L59.7773 101.051V87.8701Z" fill="url(#paint5_linear_1716_15365)"/>
</g>
<path d="M117.035 46.5253C117.152 46.5253 117.327 46.3619 117.56 46.0353C117.817 45.7086 118.108 45.1603 118.435 44.3903C118.598 44.0403 118.867 43.4453 119.24 42.6053C119.613 41.7419 120.045 40.7503 120.535 39.6303C121.048 38.4869 121.573 37.2969 122.11 36.0603C122.67 34.8236 123.195 33.6336 123.685 32.4903C124.175 31.3469 124.607 30.3436 124.98 29.4803C125.353 28.6169 125.61 27.9986 125.75 27.6253C126.077 26.8786 126.252 26.3419 126.275 26.0153C126.298 25.6886 126.252 25.5253 126.135 25.5253H133.24C133.147 25.5253 133.112 25.6886 133.135 26.0153C133.158 26.3186 133.322 26.8553 133.625 27.6253C133.788 27.9986 134.045 28.6169 134.395 29.4803C134.745 30.3203 135.165 31.3119 135.655 32.4553C136.145 33.5753 136.647 34.7536 137.16 35.9903C137.697 37.2269 138.21 38.4169 138.7 39.5603C139.19 40.6803 139.622 41.6719 139.995 42.5353C140.392 43.3986 140.672 44.0169 140.835 44.3903C141.208 45.1603 141.547 45.7086 141.85 46.0353C142.177 46.3619 142.422 46.5253 142.585 46.5253H135.13C135.34 46.5019 135.515 46.3269 135.655 46.0003C135.795 45.6503 135.783 45.1136 135.62 44.3903C135.573 44.2269 135.527 44.0519 135.48 43.8653C135.433 43.6786 135.363 43.4803 135.27 43.2703C135.177 42.9436 135.06 42.7103 134.92 42.5703C134.803 42.4069 134.617 42.3136 134.36 42.2903C134.103 42.2436 133.707 42.2203 133.17 42.2203H126.17C125.61 42.2203 125.178 42.2436 124.875 42.2903C124.595 42.3136 124.397 42.3953 124.28 42.5353C124.163 42.6753 124.058 42.9086 123.965 43.2353C123.918 43.4219 123.872 43.6203 123.825 43.8303C123.778 44.0403 123.732 44.2269 123.685 44.3903C123.522 45.1369 123.475 45.6736 123.545 46.0003C123.638 46.3269 123.755 46.5019 123.895 46.5253H117.035ZM127.08 38.7203H132.155C132.832 38.7203 133.205 38.6619 133.275 38.5453C133.345 38.4286 133.31 38.1719 133.17 37.7753C132.867 37.0286 132.552 36.2586 132.225 35.4653C131.898 34.6486 131.572 33.8436 131.245 33.0503C130.942 32.2569 130.65 31.5103 130.37 30.8103C130.113 30.1103 129.892 29.5153 129.705 29.0253H129.635C129.262 29.9353 128.865 30.9036 128.445 31.9303C128.048 32.9336 127.675 33.8669 127.325 34.7303C126.975 35.5936 126.683 36.3053 126.45 36.8653C126.24 37.4019 126.135 37.6703 126.135 37.6703C125.972 38.0436 125.913 38.3119 125.96 38.4753C126.03 38.6386 126.403 38.7203 127.08 38.7203ZM144.293 46.5253C144.433 46.5253 144.573 46.3853 144.713 46.1053C144.853 45.8253 144.923 45.3653 144.923 44.7253V30.3253C144.923 29.6853 144.853 29.2353 144.713 28.9753C144.573 28.6953 144.433 28.5453 144.293 28.5253H149.753C149.613 28.5253 149.473 28.6653 149.333 28.9453C149.193 29.2253 149.123 29.6953 149.123 30.3553V42.5653C149.123 43.0053 149.173 43.2753 149.273 43.3753C149.393 43.4553 149.753 43.4953 150.353 43.4953H157.703C158.863 43.4953 159.793 43.3653 160.493 43.1053C161.213 42.8253 161.683 42.5553 161.903 42.2953L161.123 45.6853V46.5253H144.293ZM163.805 46.5253C163.945 46.5253 164.085 46.3853 164.225 46.1053C164.365 45.8253 164.435 45.3653 164.435 44.7253V30.3253C164.435 29.6853 164.365 29.2353 164.225 28.9753C164.085 28.6953 163.945 28.5453 163.805 28.5253H169.265C169.125 28.5253 168.985 28.6653 168.845 28.9453C168.705 29.2253 168.635 29.6953 168.635 30.3553V42.5653C168.635 43.0053 168.685 43.2753 168.785 43.3753C168.905 43.4553 169.265 43.4953 169.865 43.4953H177.215C178.375 43.4953 179.305 43.3653 180.005 43.1053C180.725 42.8253 181.195 42.5553 181.415 42.2953L180.635 45.6853V46.5253H163.805ZM183.317 46.5253C183.457 46.5253 183.597 46.3953 183.737 46.1353C183.877 45.8553 183.947 45.3853 183.947 44.7253V30.3253C183.947 29.6853 183.877 29.2253 183.737 28.9453C183.597 28.6653 183.457 28.5253 183.317 28.5253H188.717C188.577 28.5253 188.437 28.6653 188.297 28.9453C188.157 29.2053 188.087 29.6753 188.087 30.3553V44.7253C188.087 45.3653 188.157 45.8253 188.297 46.1053C188.437 46.3853 188.577 46.5253 188.717 46.5253H183.317ZM190.37 46.5253C190.47 46.5253 190.62 46.3853 190.82 46.1053C191.04 45.8253 191.29 45.3553 191.57 44.6953C191.71 44.3953 191.94 43.8853 192.26 43.1653C192.58 42.4253 192.95 41.5753 193.37 40.6153C193.81 39.6353 194.26 38.6153 194.72 37.5553C195.2 36.4953 195.65 35.4753 196.07 34.4953C196.49 33.5153 196.86 32.6553 197.18 31.9153C197.5 31.1753 197.72 30.6453 197.84 30.3253C198.12 29.6853 198.27 29.2253 198.29 28.9453C198.31 28.6653 198.27 28.5253 198.17 28.5253H204.26C204.18 28.5253 204.15 28.6653 204.17 28.9453C204.19 29.2053 204.33 29.6653 204.59 30.3253C204.73 30.6453 204.95 31.1753 205.25 31.9153C205.55 32.6353 205.91 33.4853 206.33 34.4653C206.75 35.4253 207.18 36.4353 207.62 37.4953C208.08 38.5553 208.52 39.5753 208.94 40.5553C209.36 41.5153 209.73 42.3653 210.05 43.1053C210.39 43.8453 210.63 44.3753 210.77 44.6953C211.09 45.3553 211.38 45.8253 211.64 46.1053C211.92 46.3853 212.13 46.5253 212.27 46.5253H205.88C206.06 46.5053 206.21 46.3553 206.33 46.0753C206.45 45.7753 206.44 45.3153 206.3 44.6953C206.26 44.5553 206.22 44.4053 206.18 44.2453C206.14 44.0853 206.08 43.9153 206 43.7353C205.92 43.4553 205.82 43.2553 205.7 43.1353C205.6 42.9953 205.44 42.9153 205.22 42.8953C205 42.8553 204.66 42.8353 204.2 42.8353H198.2C197.72 42.8353 197.35 42.8553 197.09 42.8953C196.85 42.9153 196.68 42.9853 196.58 43.1053C196.48 43.2253 196.39 43.4253 196.31 43.7053C196.27 43.8653 196.23 44.0353 196.19 44.2153C196.15 44.3953 196.11 44.5553 196.07 44.6953C195.93 45.3353 195.89 45.7953 195.95 46.0753C196.03 46.3553 196.13 46.5053 196.25 46.5253H190.37ZM198.98 39.8353H203.33C203.91 39.8353 204.23 39.7853 204.29 39.6853C204.35 39.5853 204.32 39.3653 204.2 39.0253C203.94 38.3853 203.67 37.7253 203.39 37.0453C203.11 36.3453 202.83 35.6553 202.55 34.9753C202.29 34.2953 202.04 33.6553 201.8 33.0553C201.58 32.4553 201.39 31.9453 201.23 31.5253H201.17C200.85 32.3053 200.51 33.1353 200.15 34.0153C199.81 34.8753 199.49 35.6753 199.19 36.4153C198.89 37.1553 198.64 37.7653 198.44 38.2453C198.26 38.7053 198.17 38.9353 198.17 38.9353C198.03 39.2553 197.98 39.4853 198.02 39.6253C198.08 39.7653 198.4 39.8353 198.98 39.8353ZM213.961 46.5253C214.101 46.5253 214.241 46.3853 214.381 46.1053C214.521 45.8253 214.591 45.3653 214.591 44.7253V30.3253C214.591 29.6853 214.521 29.2353 214.381 28.9753C214.241 28.6953 214.101 28.5453 213.961 28.5253H219.451C219.351 28.5453 219.351 28.7053 219.451 29.0053C219.551 29.2853 219.871 29.7453 220.411 30.3853C220.571 30.5453 220.841 30.8653 221.221 31.3453C221.621 31.8053 222.111 32.3653 222.691 33.0253C223.271 33.6853 223.881 34.4053 224.521 35.1853C225.181 35.9653 225.851 36.7453 226.531 37.5253C227.211 38.3053 227.861 39.0553 228.481 39.7753H228.511V30.3253C228.511 29.6853 228.441 29.2353 228.301 28.9753C228.161 28.6953 228.021 28.5453 227.881 28.5253H233.341C233.201 28.5253 233.061 28.6653 232.921 28.9453C232.781 29.2253 232.711 29.6953 232.711 30.3553V44.7253C232.711 45.3653 232.781 45.8253 232.921 46.1053C233.061 46.3853 233.201 46.5253 233.341 46.5253H228.601C228.681 46.5053 228.661 46.3553 228.541 46.0753C228.421 45.7753 228.111 45.3053 227.611 44.6653C227.311 44.3053 226.911 43.8253 226.411 43.2253C225.931 42.6053 225.381 41.9153 224.761 41.1553C224.141 40.3753 223.481 39.5753 222.781 38.7553C222.101 37.9153 221.421 37.0953 220.741 36.2953C220.081 35.4753 219.461 34.7153 218.881 34.0153H218.791V44.7253C218.791 45.3653 218.861 45.8253 219.001 46.1053C219.141 46.3853 219.281 46.5253 219.421 46.5253H213.961ZM246.509 46.8253C243.069 46.8253 240.489 46.0853 238.769 44.6053C237.069 43.1053 236.219 40.7453 236.219 37.5253C236.219 35.6653 236.569 34.0453 237.269 32.6653C237.969 31.2653 239.079 30.1753 240.599 29.3953C242.119 28.6153 244.089 28.2253 246.509 28.2253C248.409 28.2253 249.989 28.3253 251.249 28.5253C252.509 28.7253 253.359 28.9253 253.799 29.1253V29.9353L254.399 33.0253C254.019 32.7653 253.449 32.4953 252.689 32.2153C251.949 31.9353 251.059 31.7053 250.019 31.5253C248.979 31.3253 247.829 31.2253 246.569 31.2253C245.049 31.2253 243.829 31.4753 242.909 31.9753C242.009 32.4553 241.359 33.1653 240.959 34.1053C240.559 35.0453 240.359 36.1853 240.359 37.5253C240.359 38.8653 240.559 40.0053 240.959 40.9453C241.379 41.8653 242.099 42.5753 243.119 43.0753C244.139 43.5553 245.579 43.7953 247.439 43.7953C249.159 43.7953 250.589 43.5653 251.729 43.1053C252.889 42.6453 253.679 42.2053 254.099 41.7853V42.6853L254.399 45.3253C254.059 45.6453 253.229 45.9753 251.909 46.3153C250.609 46.6553 248.809 46.8253 246.509 46.8253ZM257.203 46.5253C257.343 46.5253 257.483 46.3853 257.623 46.1053C257.763 45.8253 257.833 45.3653 257.833 44.7253V30.3253C257.833 29.6853 257.763 29.2353 257.623 28.9753C257.483 28.6953 257.343 28.5453 257.203 28.5253H274.513V29.3353L275.113 32.6053C274.613 32.3853 273.733 32.1553 272.473 31.9153C271.213 31.6553 269.693 31.5253 267.913 31.5253H263.263C262.663 31.5253 262.303 31.5753 262.183 31.6753C262.083 31.7553 262.033 32.0053 262.033 32.4253V35.0353C262.033 35.4753 262.083 35.7353 262.183 35.8153C262.303 35.8953 262.653 35.9353 263.233 35.9353H267.763C268.923 35.9353 269.853 35.8753 270.553 35.7553C271.273 35.6153 271.743 35.4753 271.963 35.3353C271.883 35.6753 271.793 36.0753 271.693 36.5353C271.593 36.9953 271.513 37.4353 271.453 37.8553C271.393 38.2753 271.363 38.6353 271.363 38.9353H263.233C262.653 38.9353 262.303 38.9753 262.183 39.0553C262.083 39.1153 262.033 39.3753 262.033 39.8353V42.5653C262.033 43.0253 262.083 43.2953 262.183 43.3753C262.283 43.4553 262.633 43.4953 263.233 43.4953H271.543C272.703 43.4953 273.633 43.3653 274.333 43.1053C275.053 42.8253 275.523 42.5553 275.743 42.2953L275.143 45.5953V46.5253H257.203Z" fill="#3090AB"/>
<path d="M293.855 46.5253C294.018 46.5253 294.182 46.3619 294.345 46.0353C294.508 45.7086 294.59 45.1719 294.59 44.4253V27.6253C294.59 26.8786 294.508 26.3536 294.345 26.0503C294.182 25.7236 294.018 25.5486 293.855 25.5253H314.05V26.4703L314.75 30.2853C314.167 30.0286 313.14 29.7603 311.67 29.4803C310.2 29.1769 308.427 29.0253 306.35 29.0253H300.925C300.225 29.0253 299.805 29.0836 299.665 29.2003C299.548 29.2936 299.49 29.5853 299.49 30.0753V33.1203C299.49 33.6336 299.548 33.9369 299.665 34.0303C299.805 34.1236 300.213 34.1703 300.89 34.1703H306.175C307.528 34.1703 308.613 34.1003 309.43 33.9603C310.27 33.7969 310.818 33.6336 311.075 33.4703C310.982 33.8669 310.877 34.3336 310.76 34.8703C310.643 35.4069 310.55 35.9203 310.48 36.4103C310.41 36.9003 310.375 37.3203 310.375 37.6703H300.89C300.213 37.6703 299.805 37.7169 299.665 37.8103C299.548 37.8803 299.49 38.1836 299.49 38.7203V44.4253C299.49 45.1953 299.572 45.7436 299.735 46.0703C299.898 46.3736 300.062 46.5253 300.225 46.5253H293.855ZM317.037 46.5253C317.177 46.5253 317.317 46.3953 317.457 46.1353C317.597 45.8553 317.667 45.3853 317.667 44.7253V30.3253C317.667 29.6853 317.597 29.2253 317.457 28.9453C317.317 28.6653 317.177 28.5253 317.037 28.5253H322.437C322.297 28.5253 322.157 28.6653 322.017 28.9453C321.877 29.2053 321.807 29.6753 321.807 30.3553V44.7253C321.807 45.3653 321.877 45.8253 322.017 46.1053C322.157 46.3853 322.297 46.5253 322.437 46.5253H317.037ZM325.651 46.5253C325.791 46.5253 325.931 46.3853 326.071 46.1053C326.211 45.8253 326.281 45.3653 326.281 44.7253V30.3253C326.281 29.6853 326.211 29.2353 326.071 28.9753C325.931 28.6953 325.791 28.5453 325.651 28.5253H331.141C331.041 28.5453 331.041 28.7053 331.141 29.0053C331.241 29.2853 331.561 29.7453 332.101 30.3853C332.261 30.5453 332.531 30.8653 332.911 31.3453C333.311 31.8053 333.801 32.3653 334.381 33.0253C334.961 33.6853 335.571 34.4053 336.211 35.1853C336.871 35.9653 337.541 36.7453 338.221 37.5253C338.901 38.3053 339.551 39.0553 340.171 39.7753H340.201V30.3253C340.201 29.6853 340.131 29.2353 339.991 28.9753C339.851 28.6953 339.711 28.5453 339.571 28.5253H345.031C344.891 28.5253 344.751 28.6653 344.611 28.9453C344.471 29.2253 344.401 29.6953 344.401 30.3553V44.7253C344.401 45.3653 344.471 45.8253 344.611 46.1053C344.751 46.3853 344.891 46.5253 345.031 46.5253H340.291C340.371 46.5053 340.351 46.3553 340.231 46.0753C340.111 45.7753 339.801 45.3053 339.301 44.6653C339.001 44.3053 338.601 43.8253 338.101 43.2253C337.621 42.6053 337.071 41.9153 336.451 41.1553C335.831 40.3753 335.171 39.5753 334.471 38.7553C333.791 37.9153 333.111 37.0953 332.431 36.2953C331.771 35.4753 331.151 34.7153 330.571 34.0153H330.481V44.7253C330.481 45.3653 330.551 45.8253 330.691 46.1053C330.831 46.3853 330.971 46.5253 331.111 46.5253H325.651ZM346.678 46.5253C346.778 46.5253 346.928 46.3853 347.128 46.1053C347.348 45.8253 347.598 45.3553 347.878 44.6953C348.018 44.3953 348.248 43.8853 348.568 43.1653C348.888 42.4253 349.258 41.5753 349.678 40.6153C350.118 39.6353 350.568 38.6153 351.028 37.5553C351.508 36.4953 351.958 35.4753 352.378 34.4953C352.798 33.5153 353.168 32.6553 353.488 31.9153C353.808 31.1753 354.028 30.6453 354.148 30.3253C354.428 29.6853 354.578 29.2253 354.598 28.9453C354.618 28.6653 354.578 28.5253 354.478 28.5253H360.568C360.488 28.5253 360.458 28.6653 360.478 28.9453C360.498 29.2053 360.638 29.6653 360.898 30.3253C361.038 30.6453 361.258 31.1753 361.558 31.9153C361.858 32.6353 362.218 33.4853 362.638 34.4653C363.058 35.4253 363.488 36.4353 363.928 37.4953C364.388 38.5553 364.828 39.5753 365.248 40.5553C365.668 41.5153 366.038 42.3653 366.358 43.1053C366.698 43.8453 366.938 44.3753 367.078 44.6953C367.398 45.3553 367.688 45.8253 367.948 46.1053C368.228 46.3853 368.438 46.5253 368.578 46.5253H362.188C362.368 46.5053 362.518 46.3553 362.638 46.0753C362.758 45.7753 362.748 45.3153 362.608 44.6953C362.568 44.5553 362.528 44.4053 362.488 44.2453C362.448 44.0853 362.388 43.9153 362.308 43.7353C362.228 43.4553 362.128 43.2553 362.008 43.1353C361.908 42.9953 361.748 42.9153 361.528 42.8953C361.308 42.8553 360.968 42.8353 360.508 42.8353H354.508C354.028 42.8353 353.658 42.8553 353.398 42.8953C353.158 42.9153 352.988 42.9853 352.888 43.1053C352.788 43.2253 352.698 43.4253 352.618 43.7053C352.578 43.8653 352.538 44.0353 352.498 44.2153C352.458 44.3953 352.418 44.5553 352.378 44.6953C352.238 45.3353 352.198 45.7953 352.258 46.0753C352.338 46.3553 352.438 46.5053 352.558 46.5253H346.678ZM355.288 39.8353H359.638C360.218 39.8353 360.538 39.7853 360.598 39.6853C360.658 39.5853 360.628 39.3653 360.508 39.0253C360.248 38.3853 359.978 37.7253 359.698 37.0453C359.418 36.3453 359.138 35.6553 358.858 34.9753C358.598 34.2953 358.348 33.6553 358.108 33.0553C357.888 32.4553 357.698 31.9453 357.538 31.5253H357.478C357.158 32.3053 356.818 33.1353 356.458 34.0153C356.118 34.8753 355.798 35.6753 355.498 36.4153C355.198 37.1553 354.948 37.7653 354.748 38.2453C354.568 38.7053 354.478 38.9353 354.478 38.9353C354.338 39.2553 354.288 39.4853 354.328 39.6253C354.388 39.7653 354.708 39.8353 355.288 39.8353ZM370.27 46.5253C370.41 46.5253 370.55 46.3853 370.69 46.1053C370.83 45.8253 370.9 45.3653 370.9 44.7253V30.3253C370.9 29.6853 370.83 29.2353 370.69 28.9753C370.55 28.6953 370.41 28.5453 370.27 28.5253H375.76C375.66 28.5453 375.66 28.7053 375.76 29.0053C375.86 29.2853 376.18 29.7453 376.72 30.3853C376.88 30.5453 377.15 30.8653 377.53 31.3453C377.93 31.8053 378.42 32.3653 379 33.0253C379.58 33.6853 380.19 34.4053 380.83 35.1853C381.49 35.9653 382.16 36.7453 382.84 37.5253C383.52 38.3053 384.17 39.0553 384.79 39.7753H384.82V30.3253C384.82 29.6853 384.75 29.2353 384.61 28.9753C384.47 28.6953 384.33 28.5453 384.19 28.5253H389.65C389.51 28.5253 389.37 28.6653 389.23 28.9453C389.09 29.2253 389.02 29.6953 389.02 30.3553V44.7253C389.02 45.3653 389.09 45.8253 389.23 46.1053C389.37 46.3853 389.51 46.5253 389.65 46.5253H384.91C384.99 46.5053 384.97 46.3553 384.85 46.0753C384.73 45.7753 384.42 45.3053 383.92 44.6653C383.62 44.3053 383.22 43.8253 382.72 43.2253C382.24 42.6053 381.69 41.9153 381.07 41.1553C380.45 40.3753 379.79 39.5753 379.09 38.7553C378.41 37.9153 377.73 37.0953 377.05 36.2953C376.39 35.4753 375.77 34.7153 375.19 34.0153H375.1V44.7253C375.1 45.3653 375.17 45.8253 375.31 46.1053C375.45 46.3853 375.59 46.5253 375.73 46.5253H370.27ZM402.818 46.8253C399.378 46.8253 396.798 46.0853 395.078 44.6053C393.378 43.1053 392.528 40.7453 392.528 37.5253C392.528 35.6653 392.878 34.0453 393.578 32.6653C394.278 31.2653 395.388 30.1753 396.908 29.3953C398.428 28.6153 400.398 28.2253 402.818 28.2253C404.718 28.2253 406.298 28.3253 407.558 28.5253C408.818 28.7253 409.668 28.9253 410.108 29.1253V29.9353L410.708 33.0253C410.328 32.7653 409.758 32.4953 408.998 32.2153C408.258 31.9353 407.368 31.7053 406.328 31.5253C405.288 31.3253 404.138 31.2253 402.878 31.2253C401.358 31.2253 400.138 31.4753 399.218 31.9753C398.318 32.4553 397.668 33.1653 397.268 34.1053C396.868 35.0453 396.668 36.1853 396.668 37.5253C396.668 38.8653 396.868 40.0053 397.268 40.9453C397.688 41.8653 398.408 42.5753 399.428 43.0753C400.448 43.5553 401.888 43.7953 403.748 43.7953C405.468 43.7953 406.898 43.5653 408.038 43.1053C409.198 42.6453 409.988 42.2053 410.408 41.7853V42.6853L410.708 45.3253C410.368 45.6453 409.538 45.9753 408.218 46.3153C406.918 46.6553 405.118 46.8253 402.818 46.8253ZM413.512 46.5253C413.652 46.5253 413.792 46.3953 413.932 46.1353C414.072 45.8553 414.142 45.3853 414.142 44.7253V30.3253C414.142 29.6853 414.072 29.2253 413.932 28.9453C413.792 28.6653 413.652 28.5253 413.512 28.5253H418.912C418.772 28.5253 418.632 28.6653 418.492 28.9453C418.352 29.2053 418.282 29.6753 418.282 30.3553V44.7253C418.282 45.3653 418.352 45.8253 418.492 46.1053C418.632 46.3853 418.772 46.5253 418.912 46.5253H413.512ZM420.565 46.5253C420.665 46.5253 420.815 46.3853 421.015 46.1053C421.235 45.8253 421.485 45.3553 421.765 44.6953C421.905 44.3953 422.135 43.8853 422.455 43.1653C422.775 42.4253 423.145 41.5753 423.565 40.6153C424.005 39.6353 424.455 38.6153 424.915 37.5553C425.395 36.4953 425.845 35.4753 426.265 34.4953C426.685 33.5153 427.055 32.6553 427.375 31.9153C427.695 31.1753 427.915 30.6453 428.035 30.3253C428.315 29.6853 428.465 29.2253 428.485 28.9453C428.505 28.6653 428.465 28.5253 428.365 28.5253H434.455C434.375 28.5253 434.345 28.6653 434.365 28.9453C434.385 29.2053 434.525 29.6653 434.785 30.3253C434.925 30.6453 435.145 31.1753 435.445 31.9153C435.745 32.6353 436.105 33.4853 436.525 34.4653C436.945 35.4253 437.375 36.4353 437.815 37.4953C438.275 38.5553 438.715 39.5753 439.135 40.5553C439.555 41.5153 439.925 42.3653 440.245 43.1053C440.585 43.8453 440.825 44.3753 440.965 44.6953C441.285 45.3553 441.575 45.8253 441.835 46.1053C442.115 46.3853 442.325 46.5253 442.465 46.5253H436.075C436.255 46.5053 436.405 46.3553 436.525 46.0753C436.645 45.7753 436.635 45.3153 436.495 44.6953C436.455 44.5553 436.415 44.4053 436.375 44.2453C436.335 44.0853 436.275 43.9153 436.195 43.7353C436.115 43.4553 436.015 43.2553 435.895 43.1353C435.795 42.9953 435.635 42.9153 435.415 42.8953C435.195 42.8553 434.855 42.8353 434.395 42.8353H428.395C427.915 42.8353 427.545 42.8553 427.285 42.8953C427.045 42.9153 426.875 42.9853 426.775 43.1053C426.675 43.2253 426.585 43.4253 426.505 43.7053C426.465 43.8653 426.425 44.0353 426.385 44.2153C426.345 44.3953 426.305 44.5553 426.265 44.6953C426.125 45.3353 426.085 45.7953 426.145 46.0753C426.225 46.3553 426.325 46.5053 426.445 46.5253H420.565ZM429.175 39.8353H433.525C434.105 39.8353 434.425 39.7853 434.485 39.6853C434.545 39.5853 434.515 39.3653 434.395 39.0253C434.135 38.3853 433.865 37.7253 433.585 37.0453C433.305 36.3453 433.025 35.6553 432.745 34.9753C432.485 34.2953 432.235 33.6553 431.995 33.0553C431.775 32.4553 431.585 31.9453 431.425 31.5253H431.365C431.045 32.3053 430.705 33.1353 430.345 34.0153C430.005 34.8753 429.685 35.6753 429.385 36.4153C429.085 37.1553 428.835 37.7653 428.635 38.2453C428.455 38.7053 428.365 38.9353 428.365 38.9353C428.225 39.2553 428.175 39.4853 428.215 39.6253C428.275 39.7653 428.595 39.8353 429.175 39.8353ZM444.156 46.5253C444.296 46.5253 444.436 46.3853 444.576 46.1053C444.716 45.8253 444.786 45.3653 444.786 44.7253V30.3253C444.786 29.6853 444.716 29.2353 444.576 28.9753C444.436 28.6953 444.296 28.5453 444.156 28.5253H449.616C449.476 28.5253 449.336 28.6653 449.196 28.9453C449.056 29.2253 448.986 29.6953 448.986 30.3553V42.5653C448.986 43.0053 449.036 43.2753 449.136 43.3753C449.256 43.4553 449.616 43.4953 450.216 43.4953H457.566C458.726 43.4953 459.656 43.3653 460.356 43.1053C461.076 42.8253 461.546 42.5553 461.766 42.2953L460.986 45.6853V46.5253H444.156Z" fill="#003341"/>
<path d="M211.685 82.7053C209.621 82.7053 208.073 82.2613 207.041 81.3733C206.021 80.4733 205.511 79.0573 205.511 77.1253C205.511 76.0093 205.721 75.0373 206.141 74.2093C206.561 73.3693 207.227 72.7153 208.139 72.2473C209.051 71.7793 210.233 71.5453 211.685 71.5453C212.825 71.5453 213.773 71.6053 214.529 71.7253C215.285 71.8453 215.795 71.9653 216.059 72.0853V72.5713L216.419 74.4253C216.191 74.2693 215.849 74.1073 215.393 73.9393C214.949 73.7713 214.415 73.6333 213.791 73.5253C213.167 73.4053 212.477 73.3453 211.721 73.3453C210.809 73.3453 210.077 73.4953 209.525 73.7953C208.985 74.0833 208.595 74.5093 208.355 75.0733C208.115 75.6373 207.995 76.3213 207.995 77.1253C207.995 77.9293 208.115 78.6133 208.355 79.1773C208.607 79.7293 209.039 80.1553 209.651 80.4553C210.263 80.7433 211.127 80.8873 212.243 80.8873C213.275 80.8873 214.133 80.7493 214.817 80.4733C215.513 80.1973 215.987 79.9333 216.239 79.6813V80.2213L216.419 81.8053C216.215 81.9973 215.717 82.1953 214.925 82.3993C214.145 82.6033 213.065 82.7053 211.685 82.7053ZM226.165 82.5253C226.225 82.5253 226.315 82.4413 226.435 82.2733C226.567 82.1053 226.717 81.8233 226.885 81.4273C226.969 81.2473 227.107 80.9413 227.299 80.5093C227.491 80.0653 227.713 79.5553 227.965 78.9793C228.229 78.3913 228.499 77.7793 228.775 77.1433C229.063 76.5073 229.333 75.8953 229.585 75.3073C229.837 74.7193 230.059 74.2033 230.251 73.7593C230.443 73.3153 230.575 72.9973 230.647 72.8053C230.815 72.4213 230.905 72.1453 230.917 71.9773C230.929 71.8093 230.905 71.7253 230.845 71.7253H234.499C234.451 71.7253 234.433 71.8093 234.445 71.9773C234.457 72.1333 234.541 72.4093 234.697 72.8053C234.781 72.9973 234.913 73.3153 235.093 73.7593C235.273 74.1913 235.489 74.7013 235.741 75.2893C235.993 75.8653 236.251 76.4713 236.515 77.1073C236.791 77.7433 237.055 78.3553 237.307 78.9433C237.559 79.5193 237.781 80.0293 237.973 80.4733C238.177 80.9173 238.321 81.2353 238.405 81.4273C238.597 81.8233 238.771 82.1053 238.927 82.2733C239.095 82.4413 239.221 82.5253 239.305 82.5253H235.471C235.579 82.5133 235.669 82.4233 235.741 82.2553C235.813 82.0753 235.807 81.7993 235.723 81.4273C235.699 81.3433 235.675 81.2533 235.651 81.1573C235.627 81.0613 235.591 80.9593 235.543 80.8513C235.495 80.6833 235.435 80.5633 235.363 80.4913C235.303 80.4073 235.207 80.3593 235.075 80.3473C234.943 80.3233 234.739 80.3113 234.463 80.3113H230.863C230.575 80.3113 230.353 80.3233 230.197 80.3473C230.053 80.3593 229.951 80.4013 229.891 80.4733C229.831 80.5453 229.777 80.6653 229.729 80.8333C229.705 80.9293 229.681 81.0313 229.657 81.1393C229.633 81.2473 229.609 81.3433 229.585 81.4273C229.501 81.8113 229.477 82.0873 229.513 82.2553C229.561 82.4233 229.621 82.5133 229.693 82.5253H226.165ZM231.331 78.5113H233.941C234.289 78.5113 234.481 78.4813 234.517 78.4213C234.553 78.3613 234.535 78.2293 234.463 78.0253C234.307 77.6413 234.145 77.2453 233.977 76.8373C233.809 76.4173 233.641 76.0033 233.473 75.5953C233.317 75.1873 233.167 74.8033 233.023 74.4433C232.891 74.0833 232.777 73.7773 232.681 73.5253H232.645C232.453 73.9933 232.249 74.4913 232.033 75.0193C231.829 75.5353 231.637 76.0153 231.457 76.4593C231.277 76.9033 231.127 77.2693 231.007 77.5573C230.899 77.8333 230.845 77.9713 230.845 77.9713C230.761 78.1633 230.731 78.3013 230.755 78.3853C230.791 78.4693 230.983 78.5113 231.331 78.5113ZM249.32 82.5253C249.404 82.5253 249.488 82.4413 249.572 82.2733C249.656 82.1053 249.698 81.8293 249.698 81.4453V72.8053C249.698 72.4213 249.656 72.1513 249.572 71.9953C249.488 71.8273 249.404 71.7373 249.32 71.7253H253.262C253.214 71.7373 253.196 71.8273 253.208 71.9953C253.232 72.1633 253.34 72.4453 253.532 72.8413C253.604 72.9973 253.724 73.2553 253.892 73.6153C254.072 73.9633 254.276 74.3773 254.504 74.8573C254.732 75.3373 254.972 75.8533 255.224 76.4053C255.476 76.9453 255.734 77.4913 255.998 78.0433C256.262 78.5833 256.508 79.0993 256.736 79.5913H256.754C256.994 79.0993 257.246 78.5833 257.51 78.0433C257.786 77.4913 258.056 76.9453 258.32 76.4053C258.584 75.8533 258.83 75.3373 259.058 74.8573C259.298 74.3653 259.496 73.9453 259.652 73.5973C259.82 73.2373 259.94 72.9733 260.012 72.8053C260.18 72.4213 260.276 72.1453 260.3 71.9773C260.336 71.8093 260.33 71.7253 260.282 71.7253H264.206C264.122 71.7253 264.038 71.8093 263.954 71.9773C263.87 72.1453 263.828 72.4273 263.828 72.8233V81.4453C263.828 81.8293 263.87 82.1053 263.954 82.2733C264.038 82.4413 264.122 82.5253 264.206 82.5253H260.984C261.068 82.5253 261.146 82.4413 261.218 82.2733C261.302 82.1053 261.344 81.8293 261.344 81.4453V75.0733H261.308C261.092 75.4813 260.864 75.9253 260.624 76.4053C260.384 76.8853 260.144 77.3713 259.904 77.8633C259.664 78.3553 259.43 78.8293 259.202 79.2853C258.986 79.7413 258.788 80.1553 258.608 80.5273C258.428 80.8993 258.284 81.2053 258.176 81.4453C258.008 81.8173 257.918 82.0873 257.906 82.2553C257.906 82.4233 257.936 82.5133 257.996 82.5253H255.476C255.536 82.5133 255.566 82.4293 255.566 82.2733C255.566 82.1053 255.476 81.8293 255.296 81.4453C255.212 81.2293 255.08 80.9413 254.9 80.5813C254.732 80.2213 254.54 79.8133 254.324 79.3573C254.108 78.9013 253.88 78.4273 253.64 77.9353C253.4 77.4313 253.16 76.9333 252.92 76.4413C252.692 75.9493 252.476 75.4933 252.272 75.0733H252.218V81.4453C252.218 81.8293 252.26 82.1053 252.344 82.2733C252.428 82.4413 252.512 82.5253 252.596 82.5253H249.32ZM275.125 82.5253C275.209 82.5253 275.293 82.4413 275.377 82.2733C275.461 82.1053 275.503 81.8293 275.503 81.4453V72.8053C275.503 72.4213 275.461 72.1513 275.377 71.9953C275.293 71.8273 275.209 71.7373 275.125 71.7253H285.511V72.2113L285.871 74.1733C285.571 74.0413 285.043 73.9033 284.287 73.7593C283.531 73.6033 282.619 73.5253 281.551 73.5253H278.761C278.401 73.5253 278.185 73.5553 278.113 73.6153C278.053 73.6633 278.023 73.8133 278.023 74.0653V75.6313C278.023 75.8953 278.053 76.0513 278.113 76.0993C278.185 76.1473 278.395 76.1713 278.743 76.1713H281.461C282.157 76.1713 282.715 76.1353 283.135 76.0633C283.567 75.9793 283.849 75.8953 283.981 75.8113C283.933 76.0153 283.879 76.2553 283.819 76.5313C283.759 76.8073 283.711 77.0713 283.675 77.3233C283.639 77.5753 283.621 77.7913 283.621 77.9713H278.743C278.395 77.9713 278.185 77.9953 278.113 78.0433C278.053 78.0793 278.023 78.2353 278.023 78.5113V80.1493C278.023 80.4253 278.053 80.5873 278.113 80.6353C278.173 80.6833 278.383 80.7073 278.743 80.7073H283.729C284.425 80.7073 284.983 80.6293 285.403 80.4733C285.835 80.3053 286.117 80.1433 286.249 79.9873L285.889 81.9673V82.5253H275.125ZM296.588 82.5253C296.672 82.5253 296.75 82.4413 296.822 82.2733C296.906 82.1053 296.948 81.8293 296.948 81.4453V72.8053C296.948 72.4213 296.906 72.1513 296.822 71.9953C296.738 71.8273 296.654 71.7373 296.57 71.7253H302.474C303.554 71.7253 304.406 71.8573 305.03 72.1213C305.666 72.3853 306.116 72.7753 306.38 73.2913C306.656 73.7953 306.794 74.4133 306.794 75.1453C306.794 75.6613 306.698 76.1293 306.506 76.5493C306.314 76.9693 306.026 77.3233 305.642 77.6113C305.27 77.8873 304.82 78.0793 304.292 78.1873V78.2413C304.88 78.4453 305.444 78.8293 305.984 79.3933C306.536 79.9573 307.022 80.5813 307.442 81.2653C307.718 81.7093 307.97 82.0273 308.198 82.2193C308.426 82.4113 308.6 82.5133 308.72 82.5253H304.436C304.58 82.5133 304.694 82.4353 304.778 82.2913C304.874 82.1353 304.844 81.8833 304.688 81.5353C304.436 80.9593 304.112 80.4553 303.716 80.0233C303.332 79.5913 302.864 79.2613 302.312 79.0333C301.76 78.7933 301.124 78.6733 300.404 78.6733H300.206C299.834 78.6733 299.618 78.7033 299.558 78.7633C299.498 78.8233 299.468 78.9733 299.468 79.2133V81.4453C299.468 81.8293 299.51 82.1053 299.594 82.2733C299.678 82.4413 299.762 82.5253 299.846 82.5253H296.588ZM300.206 76.9813H301.916C302.744 76.9813 303.35 76.8373 303.734 76.5493C304.118 76.2493 304.31 75.7813 304.31 75.1453C304.31 74.8213 304.238 74.5393 304.094 74.2993C303.95 74.0593 303.716 73.8793 303.392 73.7593C303.08 73.6273 302.648 73.5613 302.096 73.5613H300.206C299.834 73.5613 299.618 73.5793 299.558 73.6153C299.498 73.6513 299.468 73.7893 299.468 74.0293V76.4953C299.468 76.7353 299.498 76.8793 299.558 76.9273C299.618 76.9633 299.834 76.9813 300.206 76.9813ZM323.404 82.7053C321.34 82.7053 319.846 82.2133 318.922 81.2293C318.01 80.2333 317.554 78.8473 317.554 77.0713C317.554 75.9313 317.752 74.9533 318.148 74.1373C318.556 73.3093 319.186 72.6733 320.038 72.2293C320.902 71.7733 322.024 71.5453 323.404 71.5453H323.962C325.318 71.5453 326.416 71.7673 327.256 72.2113C328.108 72.6553 328.732 73.2913 329.128 74.1193C329.524 74.9473 329.722 75.9313 329.722 77.0713C329.722 78.8473 329.266 80.2333 328.354 81.2293C327.442 82.2133 325.978 82.7053 323.962 82.7053H323.404ZM323.584 80.8873H323.782C324.574 80.8873 325.222 80.7673 325.726 80.5273C326.23 80.2753 326.602 79.8733 326.842 79.3213C327.094 78.7573 327.22 78.0073 327.22 77.0713C327.22 76.1593 327.094 75.4333 326.842 74.8933C326.59 74.3413 326.206 73.9453 325.69 73.7053C325.186 73.4653 324.55 73.3453 323.782 73.3453H323.584C322.78 73.3453 322.114 73.4713 321.586 73.7233C321.07 73.9753 320.68 74.3773 320.416 74.9293C320.164 75.4693 320.038 76.1833 320.038 77.0713C320.038 77.9953 320.17 78.7393 320.434 79.3033C320.698 79.8673 321.088 80.2753 321.604 80.5273C322.132 80.7673 322.792 80.8873 323.584 80.8873ZM345.99 82.7053C344.778 82.7053 343.782 82.5133 343.002 82.1293C342.222 81.7453 341.646 81.1933 341.274 80.4733C340.902 79.7413 340.716 78.8713 340.716 77.8633V72.7873C340.716 72.4033 340.674 72.1333 340.59 71.9773C340.518 71.8093 340.44 71.7253 340.356 71.7253H343.578C343.494 71.7373 343.41 71.8213 343.326 71.9773C343.254 72.1333 343.218 72.4033 343.218 72.7873V77.8273C343.218 78.6193 343.332 79.2373 343.56 79.6813C343.788 80.1253 344.112 80.4373 344.532 80.6173C344.952 80.7973 345.444 80.8873 346.008 80.8873H346.206C346.638 80.8873 347.022 80.8393 347.358 80.7433C347.694 80.6473 347.976 80.4913 348.204 80.2753C348.444 80.0473 348.624 79.7353 348.744 79.3393C348.864 78.9313 348.924 78.4273 348.924 77.8273V72.7873C348.924 72.4033 348.882 72.1333 348.798 71.9773C348.726 71.8093 348.648 71.7253 348.564 71.7253H351.786C351.702 71.7373 351.618 71.8273 351.534 71.9953C351.462 72.1513 351.426 72.4213 351.426 72.8053V77.8633C351.426 78.8713 351.234 79.7413 350.85 80.4733C350.478 81.1933 349.902 81.7453 349.122 82.1293C348.354 82.5133 347.37 82.7053 346.17 82.7053H345.99ZM362.646 82.5253C362.73 82.5253 362.814 82.4413 362.898 82.2733C362.982 82.1053 363.024 81.8293 363.024 81.4453V72.8053C363.024 72.4213 362.982 72.1513 362.898 71.9953C362.814 71.8273 362.73 71.7373 362.646 71.7253H365.94C365.88 71.7373 365.88 71.8333 365.94 72.0133C366 72.1813 366.192 72.4573 366.516 72.8413C366.612 72.9373 366.774 73.1293 367.002 73.4173C367.242 73.6933 367.536 74.0293 367.884 74.4253C368.232 74.8213 368.598 75.2533 368.982 75.7213C369.378 76.1893 369.78 76.6573 370.188 77.1253C370.596 77.5933 370.986 78.0433 371.358 78.4753H371.376V72.8053C371.376 72.4213 371.334 72.1513 371.25 71.9953C371.166 71.8273 371.082 71.7373 370.998 71.7253H374.274C374.19 71.7253 374.106 71.8093 374.022 71.9773C373.938 72.1453 373.896 72.4273 373.896 72.8233V81.4453C373.896 81.8293 373.938 82.1053 374.022 82.2733C374.106 82.4413 374.19 82.5253 374.274 82.5253H371.43C371.478 82.5133 371.466 82.4233 371.394 82.2553C371.322 82.0753 371.136 81.7933 370.836 81.4093C370.656 81.1933 370.416 80.9053 370.116 80.5453C369.828 80.1733 369.498 79.7593 369.126 79.3033C368.754 78.8353 368.358 78.3553 367.938 77.8633C367.53 77.3593 367.122 76.8673 366.714 76.3873C366.318 75.8953 365.946 75.4393 365.598 75.0193H365.544V81.4453C365.544 81.8293 365.586 82.1053 365.67 82.2733C365.754 82.4413 365.838 82.5253 365.922 82.5253H362.646Z" fill="#929898"/>
<defs>
<filter id="filter0_d_1716_15365" x="0" y="0" width="92" height="111.051" filterUnits="userSpaceOnUse" color-interpolation-filters="sRGB">
<feFlood flood-opacity="0" result="BackgroundImageFix"/>
<feColorMatrix in="SourceAlpha" type="matrix" values="0 0 0 0 0 0 0 0 0 0 0 0 0 0 0 0 0 0 127 0" result="hardAlpha"/>
<feOffset dy="5"/>
<feGaussianBlur stdDeviation="2.5"/>
<feComposite in2="hardAlpha" operator="out"/>
<feColorMatrix type="matrix" values="0 0 0 0 0 0 0 0 0 0 0 0 0 0 0 0 0 0 0.3 0"/>
<feBlend mode="normal" in2="BackgroundImageFix" result="effect1_dropShadow_1716_15365"/>
<feBlend mode="normal" in="SourceGraphic" in2="effect1_dropShadow_1716_15365" result="shape"/>
</filter>
<linearGradient id="paint0_linear_1716_15365" x1="84.4149" y1="39.5415" x2="29.4523" y2="94.0407" gradientUnits="userSpaceOnUse">
<stop offset="0.333333" stop-color="#E1E1E1"/>
<stop offset="1" stop-color="#444444"/>
</linearGradient>
<linearGradient id="paint1_linear_1716_15365" x1="59.456" y1="2.62358e-06" x2="29.4334" y2="79.7394" gradientUnits="userSpaceOnUse">
<stop offset="0.338542" stop-color="#00ABDB"/>
<stop offset="1" stop-color="#B3DCF0"/>
</linearGradient>
<linearGradient id="paint2_linear_1716_15365" x1="7.26927" y1="70.2961" x2="31.4209" y2="95.2419" gradientUnits="userSpaceOnUse">
<stop offset="0.333333" stop-color="#E1E1E1"/>
<stop offset="1" stop-color="#B3ACAC"/>
</linearGradient>
<linearGradient id="paint3_linear_1716_15365" x1="7.60072" y1="39.5415" x2="62.5632" y2="94.0299" gradientUnits="userSpaceOnUse">
<stop offset="0.333333" stop-color="#E1E1E1"/>
<stop offset="1" stop-color="#444444"/>
</linearGradient>
<linearGradient id="paint4_linear_1716_15365" x1="32.5547" y1="2.62358e-06" x2="62.5817" y2="79.7355" gradientUnits="userSpaceOnUse">
<stop offset="0.494792" stop-color="#003341"/>
<stop offset="1" stop-color="#0081A5"/>
</linearGradient>
<linearGradient id="paint5_linear_1716_15365" x1="84.7313" y1="70.2961" x2="60.5795" y2="95.2372" gradientUnits="userSpaceOnUse">
<stop offset="0.333333" stop-color="#E1E1E1"/>
<stop offset="1" stop-color="#B3ACAC"/>
</linearGradient>
</defs>
</svg>
