<svg width="346" height="203" viewBox="0 0 346 203" fill="none" xmlns="http://www.w3.org/2000/svg">
<g filter="url(#filter0_d_600_21369)">
<path d="M170.556 0C181.768 25.2627 175.757 49.8998 166.035 59.3123C156.313 68.7248 132 74.6896 132 74.6896L159.228 101.051C159.228 101.051 178.472 85.1775 186.872 68.5701C195.272 51.9626 190.701 19.2477 170.556 0Z" fill="url(#paint0_linear_600_21369)"/>
<path d="M170.556 0C178.703 32.2118 171.971 40.5203 166.035 46.1318C160.099 51.7432 132 61.509 132 61.509L159.228 87.8701C160.074 87.8701 183.778 66.2577 186.872 54.1343C189.966 42.0108 190.489 21.3769 170.556 0Z" fill="url(#paint1_linear_600_21369)"/>
<path d="M159.228 87.8701L132 61.5091V74.6896L159.228 101.051V87.8701Z" fill="url(#paint2_linear_600_21369)"/>
<path d="M175.451 0C164.242 25.2627 170.251 49.8998 179.972 59.3123C189.692 68.7248 214 74.6896 214 74.6896L186.777 101.051C186.777 101.051 167.537 85.1775 159.138 68.5701C150.74 51.9626 155.311 19.2477 175.451 0Z" fill="url(#paint3_linear_600_21369)"/>
<path d="M175.451 0C167.306 32.2118 174.037 40.5203 179.972 46.1318C185.906 51.7432 214 61.509 214 61.509L186.777 87.8701C185.931 87.8701 162.232 66.2577 159.138 54.1343C156.045 42.0108 155.522 21.3769 175.451 0Z" fill="url(#paint4_linear_600_21369)"/>
<path d="M186.777 87.8701L214 61.5091V74.6896L186.777 101.051V87.8701Z" fill="url(#paint5_linear_600_21369)"/>
</g>
<path d="M0.035 154.051C0.151667 154.051 0.326667 153.887 0.56 153.561C0.816667 153.234 1.10833 152.686 1.435 151.916C1.59833 151.566 1.86667 150.971 2.24 150.131C2.61333 149.267 3.045 148.276 3.535 147.156C4.04833 146.012 4.57333 144.822 5.11 143.586C5.67 142.349 6.195 141.159 6.685 140.016C7.175 138.872 7.60667 137.869 7.98 137.006C8.35333 136.142 8.61 135.524 8.75 135.151C9.07667 134.404 9.25167 133.867 9.275 133.541C9.29833 133.214 9.25167 133.051 9.135 133.051H16.24C16.1467 133.051 16.1117 133.214 16.135 133.541C16.1583 133.844 16.3217 134.381 16.625 135.151C16.7883 135.524 17.045 136.142 17.395 137.006C17.745 137.846 18.165 138.837 18.655 139.981C19.145 141.101 19.6467 142.279 20.16 143.516C20.6967 144.752 21.21 145.942 21.7 147.086C22.19 148.206 22.6217 149.197 22.995 150.061C23.3917 150.924 23.6717 151.542 23.835 151.916C24.2083 152.686 24.5467 153.234 24.85 153.561C25.1767 153.887 25.4217 154.051 25.585 154.051H18.13C18.34 154.027 18.515 153.852 18.655 153.526C18.795 153.176 18.7833 152.639 18.62 151.916C18.5733 151.752 18.5267 151.577 18.48 151.391C18.4333 151.204 18.3633 151.006 18.27 150.796C18.1767 150.469 18.06 150.236 17.92 150.096C17.8033 149.932 17.6167 149.839 17.36 149.816C17.1033 149.769 16.7067 149.746 16.17 149.746H9.17C8.61 149.746 8.17833 149.769 7.875 149.816C7.595 149.839 7.39667 149.921 7.28 150.061C7.16333 150.201 7.05833 150.434 6.965 150.761C6.91833 150.947 6.87167 151.146 6.825 151.356C6.77833 151.566 6.73167 151.752 6.685 151.916C6.52167 152.662 6.475 153.199 6.545 153.526C6.63833 153.852 6.755 154.027 6.895 154.051H0.035ZM10.08 146.246H15.155C15.8317 146.246 16.205 146.187 16.275 146.071C16.345 145.954 16.31 145.697 16.17 145.301C15.8667 144.554 15.5517 143.784 15.225 142.991C14.8983 142.174 14.5717 141.369 14.245 140.576C13.9417 139.782 13.65 139.036 13.37 138.336C13.1133 137.636 12.8917 137.041 12.705 136.551H12.635C12.2617 137.461 11.865 138.429 11.445 139.456C11.0483 140.459 10.675 141.392 10.325 142.256C9.975 143.119 9.68333 143.831 9.45 144.391C9.24 144.927 9.135 145.196 9.135 145.196C8.97167 145.569 8.91333 145.837 8.96 146.001C9.03 146.164 9.40333 146.246 10.08 146.246ZM27.2931 154.051C27.4331 154.051 27.5731 153.911 27.7131 153.631C27.8531 153.351 27.9231 152.891 27.9231 152.251V137.851C27.9231 137.211 27.8531 136.761 27.7131 136.501C27.5731 136.221 27.4331 136.071 27.2931 136.051H32.7531C32.6131 136.051 32.4731 136.191 32.3331 136.471C32.1931 136.751 32.1231 137.221 32.1231 137.881V150.091C32.1231 150.531 32.1731 150.801 32.2731 150.901C32.3931 150.981 32.7531 151.021 33.3531 151.021H40.7031C41.8631 151.021 42.7931 150.891 43.4931 150.631C44.2131 150.351 44.6831 150.081 44.9031 149.821L44.1231 153.211V154.051H27.2931ZM46.8048 154.051C46.9448 154.051 47.0848 153.911 47.2248 153.631C47.3648 153.351 47.4348 152.891 47.4348 152.251V137.851C47.4348 137.211 47.3648 136.761 47.2248 136.501C47.0848 136.221 46.9448 136.071 46.8048 136.051H52.2648C52.1248 136.051 51.9848 136.191 51.8448 136.471C51.7048 136.751 51.6348 137.221 51.6348 137.881V150.091C51.6348 150.531 51.6848 150.801 51.7848 150.901C51.9048 150.981 52.2648 151.021 52.8648 151.021H60.2148C61.3748 151.021 62.3048 150.891 63.0048 150.631C63.7248 150.351 64.1948 150.081 64.4148 149.821L63.6348 153.211V154.051H46.8048ZM66.3166 154.051C66.4566 154.051 66.5966 153.921 66.7366 153.661C66.8766 153.381 66.9466 152.911 66.9466 152.251V137.851C66.9466 137.211 66.8766 136.751 66.7366 136.471C66.5966 136.191 66.4566 136.051 66.3166 136.051H71.7166C71.5766 136.051 71.4366 136.191 71.2966 136.471C71.1566 136.731 71.0866 137.201 71.0866 137.881V152.251C71.0866 152.891 71.1566 153.351 71.2966 153.631C71.4366 153.911 71.5766 154.051 71.7166 154.051H66.3166ZM73.3698 154.051C73.4698 154.051 73.6198 153.911 73.8198 153.631C74.0398 153.351 74.2898 152.881 74.5698 152.221C74.7098 151.921 74.9398 151.411 75.2598 150.691C75.5798 149.951 75.9498 149.101 76.3698 148.141C76.8098 147.161 77.2598 146.141 77.7198 145.081C78.1998 144.021 78.6498 143.001 79.0698 142.021C79.4898 141.041 79.8598 140.181 80.1798 139.441C80.4998 138.701 80.7198 138.171 80.8398 137.851C81.1198 137.211 81.2698 136.751 81.2898 136.471C81.3098 136.191 81.2698 136.051 81.1698 136.051H87.2598C87.1798 136.051 87.1498 136.191 87.1698 136.471C87.1898 136.731 87.3298 137.191 87.5898 137.851C87.7298 138.171 87.9498 138.701 88.2498 139.441C88.5498 140.161 88.9098 141.011 89.3298 141.991C89.7498 142.951 90.1798 143.961 90.6198 145.021C91.0798 146.081 91.5198 147.101 91.9398 148.081C92.3598 149.041 92.7298 149.891 93.0498 150.631C93.3898 151.371 93.6298 151.901 93.7698 152.221C94.0898 152.881 94.3798 153.351 94.6398 153.631C94.9198 153.911 95.1298 154.051 95.2698 154.051H88.8798C89.0598 154.031 89.2098 153.881 89.3298 153.601C89.4498 153.301 89.4398 152.841 89.2998 152.221C89.2598 152.081 89.2198 151.931 89.1798 151.771C89.1398 151.611 89.0798 151.441 88.9998 151.261C88.9198 150.981 88.8198 150.781 88.6998 150.661C88.5998 150.521 88.4398 150.441 88.2198 150.421C87.9998 150.381 87.6598 150.361 87.1998 150.361H81.1998C80.7198 150.361 80.3498 150.381 80.0898 150.421C79.8498 150.441 79.6798 150.511 79.5798 150.631C79.4798 150.751 79.3898 150.951 79.3098 151.231C79.2698 151.391 79.2298 151.561 79.1898 151.741C79.1498 151.921 79.1098 152.081 79.0698 152.221C78.9298 152.861 78.8898 153.321 78.9498 153.601C79.0298 153.881 79.1298 154.031 79.2498 154.051H73.3698ZM81.9798 147.361H86.3298C86.9098 147.361 87.2298 147.311 87.2898 147.211C87.3498 147.111 87.3198 146.891 87.1998 146.551C86.9398 145.911 86.6698 145.251 86.3898 144.571C86.1098 143.871 85.8298 143.181 85.5498 142.501C85.2898 141.821 85.0398 141.181 84.7998 140.581C84.5798 139.981 84.3898 139.471 84.2298 139.051H84.1698C83.8498 139.831 83.5098 140.661 83.1498 141.541C82.8098 142.401 82.4898 143.201 82.1898 143.941C81.8898 144.681 81.6398 145.291 81.4398 145.771C81.2598 146.231 81.1698 146.461 81.1698 146.461C81.0298 146.781 80.9798 147.011 81.0198 147.151C81.0798 147.291 81.3998 147.361 81.9798 147.361ZM96.9611 154.051C97.1011 154.051 97.2411 153.911 97.3811 153.631C97.5211 153.351 97.5911 152.891 97.5911 152.251V137.851C97.5911 137.211 97.5211 136.761 97.3811 136.501C97.2411 136.221 97.1011 136.071 96.9611 136.051H102.451C102.351 136.071 102.351 136.231 102.451 136.531C102.551 136.811 102.871 137.271 103.411 137.911C103.571 138.071 103.841 138.391 104.221 138.871C104.621 139.331 105.111 139.891 105.691 140.551C106.271 141.211 106.881 141.931 107.521 142.711C108.181 143.491 108.851 144.271 109.531 145.051C110.211 145.831 110.861 146.581 111.481 147.301H111.511V137.851C111.511 137.211 111.441 136.761 111.301 136.501C111.161 136.221 111.021 136.071 110.881 136.051H116.341C116.201 136.051 116.061 136.191 115.921 136.471C115.781 136.751 115.711 137.221 115.711 137.881V152.251C115.711 152.891 115.781 153.351 115.921 153.631C116.061 153.911 116.201 154.051 116.341 154.051H111.601C111.681 154.031 111.661 153.881 111.541 153.601C111.421 153.301 111.111 152.831 110.611 152.191C110.311 151.831 109.911 151.351 109.411 150.751C108.931 150.131 108.381 149.441 107.761 148.681C107.141 147.901 106.481 147.101 105.781 146.281C105.101 145.441 104.421 144.621 103.741 143.821C103.081 143.001 102.461 142.241 101.881 141.541H101.791V152.251C101.791 152.891 101.861 153.351 102.001 153.631C102.141 153.911 102.281 154.051 102.421 154.051H96.9611ZM129.509 154.351C126.069 154.351 123.489 153.611 121.769 152.131C120.069 150.631 119.219 148.271 119.219 145.051C119.219 143.191 119.569 141.571 120.269 140.191C120.969 138.791 122.079 137.701 123.599 136.921C125.119 136.141 127.089 135.751 129.509 135.751C131.409 135.751 132.989 135.851 134.249 136.051C135.509 136.251 136.359 136.451 136.799 136.651V137.461L137.399 140.551C137.019 140.291 136.449 140.021 135.689 139.741C134.949 139.461 134.059 139.231 133.019 139.051C131.979 138.851 130.829 138.751 129.569 138.751C128.049 138.751 126.829 139.001 125.909 139.501C125.009 139.981 124.359 140.691 123.959 141.631C123.559 142.571 123.359 143.711 123.359 145.051C123.359 146.391 123.559 147.531 123.959 148.471C124.379 149.391 125.099 150.101 126.119 150.601C127.139 151.081 128.579 151.321 130.439 151.321C132.159 151.321 133.589 151.091 134.729 150.631C135.889 150.171 136.679 149.731 137.099 149.311V150.211L137.399 152.851C137.059 153.171 136.229 153.501 134.909 153.841C133.609 154.181 131.809 154.351 129.509 154.351ZM140.203 154.051C140.343 154.051 140.483 153.911 140.623 153.631C140.763 153.351 140.833 152.891 140.833 152.251V137.851C140.833 137.211 140.763 136.761 140.623 136.501C140.483 136.221 140.343 136.071 140.203 136.051H157.513V136.861L158.113 140.131C157.613 139.911 156.733 139.681 155.473 139.441C154.213 139.181 152.693 139.051 150.913 139.051H146.263C145.663 139.051 145.303 139.101 145.183 139.201C145.083 139.281 145.033 139.531 145.033 139.951V142.561C145.033 143.001 145.083 143.261 145.183 143.341C145.303 143.421 145.653 143.461 146.233 143.461H150.763C151.923 143.461 152.853 143.401 153.553 143.281C154.273 143.141 154.743 143.001 154.963 142.861C154.883 143.201 154.793 143.601 154.693 144.061C154.593 144.521 154.513 144.961 154.453 145.381C154.393 145.801 154.363 146.161 154.363 146.461H146.233C145.653 146.461 145.303 146.501 145.183 146.581C145.083 146.641 145.033 146.901 145.033 147.361V150.091C145.033 150.551 145.083 150.821 145.183 150.901C145.283 150.981 145.633 151.021 146.233 151.021H154.543C155.703 151.021 156.633 150.891 157.333 150.631C158.053 150.351 158.523 150.081 158.743 149.821L158.143 153.121V154.051H140.203Z" fill="#3090AB"/>
<path d="M176.855 154.051C177.018 154.051 177.182 153.887 177.345 153.561C177.508 153.234 177.59 152.697 177.59 151.951V135.151C177.59 134.404 177.508 133.879 177.345 133.576C177.182 133.249 177.018 133.074 176.855 133.051H197.05V133.996L197.75 137.811C197.167 137.554 196.14 137.286 194.67 137.006C193.2 136.702 191.427 136.551 189.35 136.551H183.925C183.225 136.551 182.805 136.609 182.665 136.726C182.548 136.819 182.49 137.111 182.49 137.601V140.646C182.49 141.159 182.548 141.462 182.665 141.556C182.805 141.649 183.213 141.696 183.89 141.696H189.175C190.528 141.696 191.613 141.626 192.43 141.486C193.27 141.322 193.818 141.159 194.075 140.996C193.982 141.392 193.877 141.859 193.76 142.396C193.643 142.932 193.55 143.446 193.48 143.936C193.41 144.426 193.375 144.846 193.375 145.196H183.89C183.213 145.196 182.805 145.242 182.665 145.336C182.548 145.406 182.49 145.709 182.49 146.246V151.951C182.49 152.721 182.572 153.269 182.735 153.596C182.898 153.899 183.062 154.051 183.225 154.051H176.855ZM200.037 154.051C200.177 154.051 200.317 153.921 200.457 153.661C200.597 153.381 200.667 152.911 200.667 152.251V137.851C200.667 137.211 200.597 136.751 200.457 136.471C200.317 136.191 200.177 136.051 200.037 136.051H205.437C205.297 136.051 205.157 136.191 205.017 136.471C204.877 136.731 204.807 137.201 204.807 137.881V152.251C204.807 152.891 204.877 153.351 205.017 153.631C205.157 153.911 205.297 154.051 205.437 154.051H200.037ZM208.651 154.051C208.791 154.051 208.931 153.911 209.071 153.631C209.211 153.351 209.281 152.891 209.281 152.251V137.851C209.281 137.211 209.211 136.761 209.071 136.501C208.931 136.221 208.791 136.071 208.651 136.051H214.141C214.041 136.071 214.041 136.231 214.141 136.531C214.241 136.811 214.561 137.271 215.101 137.911C215.261 138.071 215.531 138.391 215.911 138.871C216.311 139.331 216.801 139.891 217.381 140.551C217.961 141.211 218.571 141.931 219.211 142.711C219.871 143.491 220.541 144.271 221.221 145.051C221.901 145.831 222.551 146.581 223.171 147.301H223.201V137.851C223.201 137.211 223.131 136.761 222.991 136.501C222.851 136.221 222.711 136.071 222.571 136.051H228.031C227.891 136.051 227.751 136.191 227.611 136.471C227.471 136.751 227.401 137.221 227.401 137.881V152.251C227.401 152.891 227.471 153.351 227.611 153.631C227.751 153.911 227.891 154.051 228.031 154.051H223.291C223.371 154.031 223.351 153.881 223.231 153.601C223.111 153.301 222.801 152.831 222.301 152.191C222.001 151.831 221.601 151.351 221.101 150.751C220.621 150.131 220.071 149.441 219.451 148.681C218.831 147.901 218.171 147.101 217.471 146.281C216.791 145.441 216.111 144.621 215.431 143.821C214.771 143.001 214.151 142.241 213.571 141.541H213.481V152.251C213.481 152.891 213.551 153.351 213.691 153.631C213.831 153.911 213.971 154.051 214.111 154.051H208.651ZM229.678 154.051C229.778 154.051 229.928 153.911 230.128 153.631C230.348 153.351 230.598 152.881 230.878 152.221C231.018 151.921 231.248 151.411 231.568 150.691C231.888 149.951 232.258 149.101 232.678 148.141C233.118 147.161 233.568 146.141 234.028 145.081C234.508 144.021 234.958 143.001 235.378 142.021C235.798 141.041 236.168 140.181 236.488 139.441C236.808 138.701 237.028 138.171 237.148 137.851C237.428 137.211 237.578 136.751 237.598 136.471C237.618 136.191 237.578 136.051 237.478 136.051H243.568C243.488 136.051 243.458 136.191 243.478 136.471C243.498 136.731 243.638 137.191 243.898 137.851C244.038 138.171 244.258 138.701 244.558 139.441C244.858 140.161 245.218 141.011 245.638 141.991C246.058 142.951 246.488 143.961 246.928 145.021C247.388 146.081 247.828 147.101 248.248 148.081C248.668 149.041 249.038 149.891 249.358 150.631C249.698 151.371 249.938 151.901 250.078 152.221C250.398 152.881 250.688 153.351 250.948 153.631C251.228 153.911 251.438 154.051 251.578 154.051H245.188C245.368 154.031 245.518 153.881 245.638 153.601C245.758 153.301 245.748 152.841 245.608 152.221C245.568 152.081 245.528 151.931 245.488 151.771C245.448 151.611 245.388 151.441 245.308 151.261C245.228 150.981 245.128 150.781 245.008 150.661C244.908 150.521 244.748 150.441 244.528 150.421C244.308 150.381 243.968 150.361 243.508 150.361H237.508C237.028 150.361 236.658 150.381 236.398 150.421C236.158 150.441 235.988 150.511 235.888 150.631C235.788 150.751 235.698 150.951 235.618 151.231C235.578 151.391 235.538 151.561 235.498 151.741C235.458 151.921 235.418 152.081 235.378 152.221C235.238 152.861 235.198 153.321 235.258 153.601C235.338 153.881 235.438 154.031 235.558 154.051H229.678ZM238.288 147.361H242.638C243.218 147.361 243.538 147.311 243.598 147.211C243.658 147.111 243.628 146.891 243.508 146.551C243.248 145.911 242.978 145.251 242.698 144.571C242.418 143.871 242.138 143.181 241.858 142.501C241.598 141.821 241.348 141.181 241.108 140.581C240.888 139.981 240.698 139.471 240.538 139.051H240.478C240.158 139.831 239.818 140.661 239.458 141.541C239.118 142.401 238.798 143.201 238.498 143.941C238.198 144.681 237.948 145.291 237.748 145.771C237.568 146.231 237.478 146.461 237.478 146.461C237.338 146.781 237.288 147.011 237.328 147.151C237.388 147.291 237.708 147.361 238.288 147.361ZM253.27 154.051C253.41 154.051 253.55 153.911 253.69 153.631C253.83 153.351 253.9 152.891 253.9 152.251V137.851C253.9 137.211 253.83 136.761 253.69 136.501C253.55 136.221 253.41 136.071 253.27 136.051H258.76C258.66 136.071 258.66 136.231 258.76 136.531C258.86 136.811 259.18 137.271 259.72 137.911C259.88 138.071 260.15 138.391 260.53 138.871C260.93 139.331 261.42 139.891 262 140.551C262.58 141.211 263.19 141.931 263.83 142.711C264.49 143.491 265.16 144.271 265.84 145.051C266.52 145.831 267.17 146.581 267.79 147.301H267.82V137.851C267.82 137.211 267.75 136.761 267.61 136.501C267.47 136.221 267.33 136.071 267.19 136.051H272.65C272.51 136.051 272.37 136.191 272.23 136.471C272.09 136.751 272.02 137.221 272.02 137.881V152.251C272.02 152.891 272.09 153.351 272.23 153.631C272.37 153.911 272.51 154.051 272.65 154.051H267.91C267.99 154.031 267.97 153.881 267.85 153.601C267.73 153.301 267.42 152.831 266.92 152.191C266.62 151.831 266.22 151.351 265.72 150.751C265.24 150.131 264.69 149.441 264.07 148.681C263.45 147.901 262.79 147.101 262.09 146.281C261.41 145.441 260.73 144.621 260.05 143.821C259.39 143.001 258.77 142.241 258.19 141.541H258.1V152.251C258.1 152.891 258.17 153.351 258.31 153.631C258.45 153.911 258.59 154.051 258.73 154.051H253.27ZM285.818 154.351C282.378 154.351 279.798 153.611 278.078 152.131C276.378 150.631 275.528 148.271 275.528 145.051C275.528 143.191 275.878 141.571 276.578 140.191C277.278 138.791 278.388 137.701 279.908 136.921C281.428 136.141 283.398 135.751 285.818 135.751C287.718 135.751 289.298 135.851 290.558 136.051C291.818 136.251 292.668 136.451 293.108 136.651V137.461L293.708 140.551C293.328 140.291 292.758 140.021 291.998 139.741C291.258 139.461 290.368 139.231 289.328 139.051C288.288 138.851 287.138 138.751 285.878 138.751C284.358 138.751 283.138 139.001 282.218 139.501C281.318 139.981 280.668 140.691 280.268 141.631C279.868 142.571 279.668 143.711 279.668 145.051C279.668 146.391 279.868 147.531 280.268 148.471C280.688 149.391 281.408 150.101 282.428 150.601C283.448 151.081 284.888 151.321 286.748 151.321C288.468 151.321 289.898 151.091 291.038 150.631C292.198 150.171 292.988 149.731 293.408 149.311V150.211L293.708 152.851C293.368 153.171 292.538 153.501 291.218 153.841C289.918 154.181 288.118 154.351 285.818 154.351ZM296.512 154.051C296.652 154.051 296.792 153.921 296.932 153.661C297.072 153.381 297.142 152.911 297.142 152.251V137.851C297.142 137.211 297.072 136.751 296.932 136.471C296.792 136.191 296.652 136.051 296.512 136.051H301.912C301.772 136.051 301.632 136.191 301.492 136.471C301.352 136.731 301.282 137.201 301.282 137.881V152.251C301.282 152.891 301.352 153.351 301.492 153.631C301.632 153.911 301.772 154.051 301.912 154.051H296.512ZM303.565 154.051C303.665 154.051 303.815 153.911 304.015 153.631C304.235 153.351 304.485 152.881 304.765 152.221C304.905 151.921 305.135 151.411 305.455 150.691C305.775 149.951 306.145 149.101 306.565 148.141C307.005 147.161 307.455 146.141 307.915 145.081C308.395 144.021 308.845 143.001 309.265 142.021C309.685 141.041 310.055 140.181 310.375 139.441C310.695 138.701 310.915 138.171 311.035 137.851C311.315 137.211 311.465 136.751 311.485 136.471C311.505 136.191 311.465 136.051 311.365 136.051H317.455C317.375 136.051 317.345 136.191 317.365 136.471C317.385 136.731 317.525 137.191 317.785 137.851C317.925 138.171 318.145 138.701 318.445 139.441C318.745 140.161 319.105 141.011 319.525 141.991C319.945 142.951 320.375 143.961 320.815 145.021C321.275 146.081 321.715 147.101 322.135 148.081C322.555 149.041 322.925 149.891 323.245 150.631C323.585 151.371 323.825 151.901 323.965 152.221C324.285 152.881 324.575 153.351 324.835 153.631C325.115 153.911 325.325 154.051 325.465 154.051H319.075C319.255 154.031 319.405 153.881 319.525 153.601C319.645 153.301 319.635 152.841 319.495 152.221C319.455 152.081 319.415 151.931 319.375 151.771C319.335 151.611 319.275 151.441 319.195 151.261C319.115 150.981 319.015 150.781 318.895 150.661C318.795 150.521 318.635 150.441 318.415 150.421C318.195 150.381 317.855 150.361 317.395 150.361H311.395C310.915 150.361 310.545 150.381 310.285 150.421C310.045 150.441 309.875 150.511 309.775 150.631C309.675 150.751 309.585 150.951 309.505 151.231C309.465 151.391 309.425 151.561 309.385 151.741C309.345 151.921 309.305 152.081 309.265 152.221C309.125 152.861 309.085 153.321 309.145 153.601C309.225 153.881 309.325 154.031 309.445 154.051H303.565ZM312.175 147.361H316.525C317.105 147.361 317.425 147.311 317.485 147.211C317.545 147.111 317.515 146.891 317.395 146.551C317.135 145.911 316.865 145.251 316.585 144.571C316.305 143.871 316.025 143.181 315.745 142.501C315.485 141.821 315.235 141.181 314.995 140.581C314.775 139.981 314.585 139.471 314.425 139.051H314.365C314.045 139.831 313.705 140.661 313.345 141.541C313.005 142.401 312.685 143.201 312.385 143.941C312.085 144.681 311.835 145.291 311.635 145.771C311.455 146.231 311.365 146.461 311.365 146.461C311.225 146.781 311.175 147.011 311.215 147.151C311.275 147.291 311.595 147.361 312.175 147.361ZM327.156 154.051C327.296 154.051 327.436 153.911 327.576 153.631C327.716 153.351 327.786 152.891 327.786 152.251V137.851C327.786 137.211 327.716 136.761 327.576 136.501C327.436 136.221 327.296 136.071 327.156 136.051H332.616C332.476 136.051 332.336 136.191 332.196 136.471C332.056 136.751 331.986 137.221 331.986 137.881V150.091C331.986 150.531 332.036 150.801 332.136 150.901C332.256 150.981 332.616 151.021 333.216 151.021H340.566C341.726 151.021 342.656 150.891 343.356 150.631C344.076 150.351 344.546 150.081 344.766 149.821L343.986 153.211V154.051H327.156Z" fill="#003341"/>
<path d="M94.6849 197.231C92.6209 197.231 91.0729 196.787 90.0409 195.899C89.0209 194.999 88.5109 193.583 88.5109 191.651C88.5109 190.535 88.7209 189.563 89.1409 188.735C89.5609 187.895 90.2269 187.241 91.1389 186.773C92.0509 186.305 93.2329 186.071 94.6849 186.071C95.8249 186.071 96.7729 186.131 97.5289 186.251C98.2849 186.371 98.7949 186.491 99.0589 186.611V187.097L99.4189 188.951C99.1909 188.795 98.8489 188.633 98.3929 188.465C97.9489 188.297 97.4149 188.159 96.7909 188.051C96.1669 187.931 95.4769 187.871 94.7209 187.871C93.8089 187.871 93.0769 188.021 92.5249 188.321C91.9849 188.609 91.5949 189.035 91.3549 189.599C91.1149 190.163 90.9949 190.847 90.9949 191.651C90.9949 192.455 91.1149 193.139 91.3549 193.703C91.6069 194.255 92.0389 194.681 92.6509 194.981C93.2629 195.269 94.1269 195.413 95.2429 195.413C96.2749 195.413 97.1329 195.275 97.8169 194.999C98.5129 194.723 98.9869 194.459 99.2389 194.207V194.747L99.4189 196.331C99.2149 196.523 98.7169 196.721 97.9249 196.925C97.1449 197.129 96.0649 197.231 94.6849 197.231ZM109.165 197.051C109.225 197.051 109.315 196.967 109.435 196.799C109.567 196.631 109.717 196.349 109.885 195.953C109.969 195.773 110.107 195.467 110.299 195.035C110.491 194.591 110.713 194.081 110.965 193.505C111.229 192.917 111.499 192.305 111.775 191.669C112.063 191.033 112.333 190.421 112.585 189.833C112.837 189.245 113.059 188.729 113.251 188.285C113.443 187.841 113.575 187.523 113.647 187.331C113.815 186.947 113.905 186.671 113.917 186.503C113.929 186.335 113.905 186.251 113.845 186.251H117.499C117.451 186.251 117.433 186.335 117.445 186.503C117.457 186.659 117.541 186.935 117.697 187.331C117.781 187.523 117.913 187.841 118.093 188.285C118.273 188.717 118.489 189.227 118.741 189.815C118.993 190.391 119.251 190.997 119.515 191.633C119.791 192.269 120.055 192.881 120.307 193.469C120.559 194.045 120.781 194.555 120.973 194.999C121.177 195.443 121.321 195.761 121.405 195.953C121.597 196.349 121.771 196.631 121.927 196.799C122.095 196.967 122.221 197.051 122.305 197.051H118.471C118.579 197.039 118.669 196.949 118.741 196.781C118.813 196.601 118.807 196.325 118.723 195.953C118.699 195.869 118.675 195.779 118.651 195.683C118.627 195.587 118.591 195.485 118.543 195.377C118.495 195.209 118.435 195.089 118.363 195.017C118.303 194.933 118.207 194.885 118.075 194.873C117.943 194.849 117.739 194.837 117.463 194.837H113.863C113.575 194.837 113.353 194.849 113.197 194.873C113.053 194.885 112.951 194.927 112.891 194.999C112.831 195.071 112.777 195.191 112.729 195.359C112.705 195.455 112.681 195.557 112.657 195.665C112.633 195.773 112.609 195.869 112.585 195.953C112.501 196.337 112.477 196.613 112.513 196.781C112.561 196.949 112.621 197.039 112.693 197.051H109.165ZM114.331 193.037H116.941C117.289 193.037 117.481 193.007 117.517 192.947C117.553 192.887 117.535 192.755 117.463 192.551C117.307 192.167 117.145 191.771 116.977 191.363C116.809 190.943 116.641 190.529 116.473 190.121C116.317 189.713 116.167 189.329 116.023 188.969C115.891 188.609 115.777 188.303 115.681 188.051H115.645C115.453 188.519 115.249 189.017 115.033 189.545C114.829 190.061 114.637 190.541 114.457 190.985C114.277 191.429 114.127 191.795 114.007 192.083C113.899 192.359 113.845 192.497 113.845 192.497C113.761 192.689 113.731 192.827 113.755 192.911C113.791 192.995 113.983 193.037 114.331 193.037ZM132.32 197.051C132.404 197.051 132.488 196.967 132.572 196.799C132.656 196.631 132.698 196.355 132.698 195.971V187.331C132.698 186.947 132.656 186.677 132.572 186.521C132.488 186.353 132.404 186.263 132.32 186.251H136.262C136.214 186.263 136.196 186.353 136.208 186.521C136.232 186.689 136.34 186.971 136.532 187.367C136.604 187.523 136.724 187.781 136.892 188.141C137.072 188.489 137.276 188.903 137.504 189.383C137.732 189.863 137.972 190.379 138.224 190.931C138.476 191.471 138.734 192.017 138.998 192.569C139.262 193.109 139.508 193.625 139.736 194.117H139.754C139.994 193.625 140.246 193.109 140.51 192.569C140.786 192.017 141.056 191.471 141.32 190.931C141.584 190.379 141.83 189.863 142.058 189.383C142.298 188.891 142.496 188.471 142.652 188.123C142.82 187.763 142.94 187.499 143.012 187.331C143.18 186.947 143.276 186.671 143.3 186.503C143.336 186.335 143.33 186.251 143.282 186.251H147.206C147.122 186.251 147.038 186.335 146.954 186.503C146.87 186.671 146.828 186.953 146.828 187.349V195.971C146.828 196.355 146.87 196.631 146.954 196.799C147.038 196.967 147.122 197.051 147.206 197.051H143.984C144.068 197.051 144.146 196.967 144.218 196.799C144.302 196.631 144.344 196.355 144.344 195.971V189.599H144.308C144.092 190.007 143.864 190.451 143.624 190.931C143.384 191.411 143.144 191.897 142.904 192.389C142.664 192.881 142.43 193.355 142.202 193.811C141.986 194.267 141.788 194.681 141.608 195.053C141.428 195.425 141.284 195.731 141.176 195.971C141.008 196.343 140.918 196.613 140.906 196.781C140.906 196.949 140.936 197.039 140.996 197.051H138.476C138.536 197.039 138.566 196.955 138.566 196.799C138.566 196.631 138.476 196.355 138.296 195.971C138.212 195.755 138.08 195.467 137.9 195.107C137.732 194.747 137.54 194.339 137.324 193.883C137.108 193.427 136.88 192.953 136.64 192.461C136.4 191.957 136.16 191.459 135.92 190.967C135.692 190.475 135.476 190.019 135.272 189.599H135.218V195.971C135.218 196.355 135.26 196.631 135.344 196.799C135.428 196.967 135.512 197.051 135.596 197.051H132.32ZM158.125 197.051C158.209 197.051 158.293 196.967 158.377 196.799C158.461 196.631 158.503 196.355 158.503 195.971V187.331C158.503 186.947 158.461 186.677 158.377 186.521C158.293 186.353 158.209 186.263 158.125 186.251H168.511V186.737L168.871 188.699C168.571 188.567 168.043 188.429 167.287 188.285C166.531 188.129 165.619 188.051 164.551 188.051H161.761C161.401 188.051 161.185 188.081 161.113 188.141C161.053 188.189 161.023 188.339 161.023 188.591V190.157C161.023 190.421 161.053 190.577 161.113 190.625C161.185 190.673 161.395 190.697 161.743 190.697H164.461C165.157 190.697 165.715 190.661 166.135 190.589C166.567 190.505 166.849 190.421 166.981 190.337C166.933 190.541 166.879 190.781 166.819 191.057C166.759 191.333 166.711 191.597 166.675 191.849C166.639 192.101 166.621 192.317 166.621 192.497H161.743C161.395 192.497 161.185 192.521 161.113 192.569C161.053 192.605 161.023 192.761 161.023 193.037V194.675C161.023 194.951 161.053 195.113 161.113 195.161C161.173 195.209 161.383 195.233 161.743 195.233H166.729C167.425 195.233 167.983 195.155 168.403 194.999C168.835 194.831 169.117 194.669 169.249 194.513L168.889 196.493V197.051H158.125ZM179.588 197.051C179.672 197.051 179.75 196.967 179.822 196.799C179.906 196.631 179.948 196.355 179.948 195.971V187.331C179.948 186.947 179.906 186.677 179.822 186.521C179.738 186.353 179.654 186.263 179.57 186.251H185.474C186.554 186.251 187.406 186.383 188.03 186.647C188.666 186.911 189.116 187.301 189.38 187.817C189.656 188.321 189.794 188.939 189.794 189.671C189.794 190.187 189.698 190.655 189.506 191.075C189.314 191.495 189.026 191.849 188.642 192.137C188.27 192.413 187.82 192.605 187.292 192.713V192.767C187.88 192.971 188.444 193.355 188.984 193.919C189.536 194.483 190.022 195.107 190.442 195.791C190.718 196.235 190.97 196.553 191.198 196.745C191.426 196.937 191.6 197.039 191.72 197.051H187.436C187.58 197.039 187.694 196.961 187.778 196.817C187.874 196.661 187.844 196.409 187.688 196.061C187.436 195.485 187.112 194.981 186.716 194.549C186.332 194.117 185.864 193.787 185.312 193.559C184.76 193.319 184.124 193.199 183.404 193.199H183.206C182.834 193.199 182.618 193.229 182.558 193.289C182.498 193.349 182.468 193.499 182.468 193.739V195.971C182.468 196.355 182.51 196.631 182.594 196.799C182.678 196.967 182.762 197.051 182.846 197.051H179.588ZM183.206 191.507H184.916C185.744 191.507 186.35 191.363 186.734 191.075C187.118 190.775 187.31 190.307 187.31 189.671C187.31 189.347 187.238 189.065 187.094 188.825C186.95 188.585 186.716 188.405 186.392 188.285C186.08 188.153 185.648 188.087 185.096 188.087H183.206C182.834 188.087 182.618 188.105 182.558 188.141C182.498 188.177 182.468 188.315 182.468 188.555V191.021C182.468 191.261 182.498 191.405 182.558 191.453C182.618 191.489 182.834 191.507 183.206 191.507ZM206.404 197.231C204.34 197.231 202.846 196.739 201.922 195.755C201.01 194.759 200.554 193.373 200.554 191.597C200.554 190.457 200.752 189.479 201.148 188.663C201.556 187.835 202.186 187.199 203.038 186.755C203.902 186.299 205.024 186.071 206.404 186.071H206.962C208.318 186.071 209.416 186.293 210.256 186.737C211.108 187.181 211.732 187.817 212.128 188.645C212.524 189.473 212.722 190.457 212.722 191.597C212.722 193.373 212.266 194.759 211.354 195.755C210.442 196.739 208.978 197.231 206.962 197.231H206.404ZM206.584 195.413H206.782C207.574 195.413 208.222 195.293 208.726 195.053C209.23 194.801 209.602 194.399 209.842 193.847C210.094 193.283 210.22 192.533 210.22 191.597C210.22 190.685 210.094 189.959 209.842 189.419C209.59 188.867 209.206 188.471 208.69 188.231C208.186 187.991 207.55 187.871 206.782 187.871H206.584C205.78 187.871 205.114 187.997 204.586 188.249C204.07 188.501 203.68 188.903 203.416 189.455C203.164 189.995 203.038 190.709 203.038 191.597C203.038 192.521 203.17 193.265 203.434 193.829C203.698 194.393 204.088 194.801 204.604 195.053C205.132 195.293 205.792 195.413 206.584 195.413ZM228.99 197.231C227.778 197.231 226.782 197.039 226.002 196.655C225.222 196.271 224.646 195.719 224.274 194.999C223.902 194.267 223.716 193.397 223.716 192.389V187.313C223.716 186.929 223.674 186.659 223.59 186.503C223.518 186.335 223.44 186.251 223.356 186.251H226.578C226.494 186.263 226.41 186.347 226.326 186.503C226.254 186.659 226.218 186.929 226.218 187.313V192.353C226.218 193.145 226.332 193.763 226.56 194.207C226.788 194.651 227.112 194.963 227.532 195.143C227.952 195.323 228.444 195.413 229.008 195.413H229.206C229.638 195.413 230.022 195.365 230.358 195.269C230.694 195.173 230.976 195.017 231.204 194.801C231.444 194.573 231.624 194.261 231.744 193.865C231.864 193.457 231.924 192.953 231.924 192.353V187.313C231.924 186.929 231.882 186.659 231.798 186.503C231.726 186.335 231.648 186.251 231.564 186.251H234.786C234.702 186.263 234.618 186.353 234.534 186.521C234.462 186.677 234.426 186.947 234.426 187.331V192.389C234.426 193.397 234.234 194.267 233.85 194.999C233.478 195.719 232.902 196.271 232.122 196.655C231.354 197.039 230.37 197.231 229.17 197.231H228.99ZM245.646 197.051C245.73 197.051 245.814 196.967 245.898 196.799C245.982 196.631 246.024 196.355 246.024 195.971V187.331C246.024 186.947 245.982 186.677 245.898 186.521C245.814 186.353 245.73 186.263 245.646 186.251H248.94C248.88 186.263 248.88 186.359 248.94 186.539C249 186.707 249.192 186.983 249.516 187.367C249.612 187.463 249.774 187.655 250.002 187.943C250.242 188.219 250.536 188.555 250.884 188.951C251.232 189.347 251.598 189.779 251.982 190.247C252.378 190.715 252.78 191.183 253.188 191.651C253.596 192.119 253.986 192.569 254.358 193.001H254.376V187.331C254.376 186.947 254.334 186.677 254.25 186.521C254.166 186.353 254.082 186.263 253.998 186.251H257.274C257.19 186.251 257.106 186.335 257.022 186.503C256.938 186.671 256.896 186.953 256.896 187.349V195.971C256.896 196.355 256.938 196.631 257.022 196.799C257.106 196.967 257.19 197.051 257.274 197.051H254.43C254.478 197.039 254.466 196.949 254.394 196.781C254.322 196.601 254.136 196.319 253.836 195.935C253.656 195.719 253.416 195.431 253.116 195.071C252.828 194.699 252.498 194.285 252.126 193.829C251.754 193.361 251.358 192.881 250.938 192.389C250.53 191.885 250.122 191.393 249.714 190.913C249.318 190.421 248.946 189.965 248.598 189.545H248.544V195.971C248.544 196.355 248.586 196.631 248.67 196.799C248.754 196.967 248.838 197.051 248.922 197.051H245.646Z" fill="#929898"/>
<defs>
<filter id="filter0_d_600_21369" x="127" y="0" width="92.0001" height="111.051" filterUnits="userSpaceOnUse" color-interpolation-filters="sRGB">
<feFlood flood-opacity="0" result="BackgroundImageFix"/>
<feColorMatrix in="SourceAlpha" type="matrix" values="0 0 0 0 0 0 0 0 0 0 0 0 0 0 0 0 0 0 127 0" result="hardAlpha"/>
<feOffset dy="5"/>
<feGaussianBlur stdDeviation="2.5"/>
<feComposite in2="hardAlpha" operator="out"/>
<feColorMatrix type="matrix" values="0 0 0 0 0 0 0 0 0 0 0 0 0 0 0 0 0 0 0.3 0"/>
<feBlend mode="normal" in2="BackgroundImageFix" result="effect1_dropShadow_600_21369"/>
<feBlend mode="normal" in="SourceGraphic" in2="effect1_dropShadow_600_21369" result="shape"/>
</filter>
<linearGradient id="paint0_linear_600_21369" x1="211.415" y1="39.5415" x2="156.452" y2="94.0407" gradientUnits="userSpaceOnUse">
<stop offset="0.333333" stop-color="#E1E1E1"/>
<stop offset="1" stop-color="#444444"/>
</linearGradient>
<linearGradient id="paint1_linear_600_21369" x1="186.456" y1="2.62358e-06" x2="156.433" y2="79.7394" gradientUnits="userSpaceOnUse">
<stop offset="0.338542" stop-color="#00ABDB"/>
<stop offset="1" stop-color="#B3DCF0"/>
</linearGradient>
<linearGradient id="paint2_linear_600_21369" x1="134.269" y1="70.2961" x2="158.421" y2="95.2419" gradientUnits="userSpaceOnUse">
<stop offset="0.333333" stop-color="#E1E1E1"/>
<stop offset="1" stop-color="#B3ACAC"/>
</linearGradient>
<linearGradient id="paint3_linear_600_21369" x1="134.601" y1="39.5415" x2="189.563" y2="94.0299" gradientUnits="userSpaceOnUse">
<stop offset="0.333333" stop-color="#E1E1E1"/>
<stop offset="1" stop-color="#444444"/>
</linearGradient>
<linearGradient id="paint4_linear_600_21369" x1="159.555" y1="2.62358e-06" x2="189.582" y2="79.7355" gradientUnits="userSpaceOnUse">
<stop offset="0.494792" stop-color="#003341"/>
<stop offset="1" stop-color="#0081A5"/>
</linearGradient>
<linearGradient id="paint5_linear_600_21369" x1="211.731" y1="70.2961" x2="187.579" y2="95.2372" gradientUnits="userSpaceOnUse">
<stop offset="0.333333" stop-color="#E1E1E1"/>
<stop offset="1" stop-color="#B3ACAC"/>
</linearGradient>
</defs>
</svg>
